<svg width="13" height="20" viewBox="0 0 13 20" fill="none" xmlns="http://www.w3.org/2000/svg">
<path d="M0.349967 5.87679C0.0920424 6.12998 -0.039439 6.51184 0.0104332 6.87651C0.0628242 7.30005 0.358531 7.67826 0.748945 7.8184C1.15901 7.97677 1.64816 7.8533 1.94739 7.52458C3.10906 6.32638 4.2667 5.12453 5.42837 3.92685C5.42635 8.90251 5.42887 13.8777 5.42736 18.8533C5.41577 19.2357 5.60418 19.6181 5.91853 19.8223C6.26159 20.0578 6.73714 20.0593 7.0807 19.8254C7.39656 19.6217 7.58698 19.2409 7.57741 18.858C7.5769 13.8808 7.57741 8.90356 7.5769 3.92633C8.70381 5.09327 9.83224 6.25865 10.9596 7.42508C11.0936 7.56834 11.2382 7.70848 11.4186 7.78662C11.7924 7.96375 12.2563 7.90071 12.5757 7.6345C13.0946 7.23441 13.1475 6.36597 12.6795 5.90284C10.8836 4.04406 9.08667 2.18581 7.28926 0.328594C6.87567 -0.109531 6.12859 -0.109531 5.71501 0.328594C3.92616 2.17747 2.13831 4.02739 0.349967 5.87679Z" fill="white"/>
</svg>
