<svg width="27" height="27" viewBox="0 0 27 27" fill="none" xmlns="http://www.w3.org/2000/svg">
<path d="M18.1232 7.34997C17.87 7.09204 17.4882 6.96056 17.1235 7.01043C16.7 7.06282 16.3217 7.35853 16.1816 7.74895C16.0232 8.15901 16.1467 8.64816 16.4754 8.94739C17.6736 10.1091 18.8755 11.2667 20.0732 12.4284C15.0975 12.4264 10.1223 12.4289 5.14668 12.4274C4.7643 12.4158 4.38191 12.6042 4.1777 12.9185C3.94223 13.2616 3.94066 13.7371 4.17457 14.0807C4.37827 14.3966 4.75909 14.587 5.14199 14.5774C10.1192 14.5769 15.0964 14.5774 20.0737 14.5769C18.9067 15.7038 17.7413 16.8322 16.5749 17.9596C16.4317 18.0936 16.2915 18.2382 16.2134 18.4186C16.0363 18.7924 16.0993 19.2563 16.3655 19.5757C16.7656 20.0946 17.634 20.1475 18.0972 19.6795C19.9559 17.8836 21.8142 16.0867 23.6714 14.2893C24.1095 13.8757 24.1095 13.1286 23.6714 12.715C21.8225 10.9262 19.9726 9.13831 18.1232 7.34997Z" fill="white"/>
</svg>
