<svg width="50" height="50" viewBox="0 0 50 50" fill="none" xmlns="http://www.w3.org/2000/svg">
<path fill-rule="evenodd" clip-rule="evenodd" d="M49.7071 0.292893C50.0976 0.683417 50.0976 1.31658 49.7071 1.70711L1.70711 49.7071C1.31658 50.0976 0.683417 50.0976 0.292893 49.7071C-0.0976311 49.3166 -0.0976311 48.6834 0.292893 48.2929L48.2929 0.292893C48.6834 -0.0976311 49.3166 -0.0976311 49.7071 0.292893Z" fill="white"/>
<path fill-rule="evenodd" clip-rule="evenodd" d="M0.292892 0.292893C-0.0976295 0.683417 -0.0976295 1.31658 0.292892 1.70711L48.2929 49.7071C48.6834 50.0976 49.3166 50.0976 49.7071 49.7071C50.0976 49.3166 50.0976 48.6834 49.7071 48.2929L1.70711 0.292893C1.31658 -0.0976311 0.683418 -0.0976311 0.292892 0.292893Z" fill="white"/>
</svg>
