<svg width="20" height="21" viewBox="0 0 20 21" fill="none" xmlns="http://www.w3.org/2000/svg">
<g opacity="0.5">
<path fill-rule="evenodd" clip-rule="evenodd" d="M3.25008 2.62614C2.85955 2.23562 2.22639 2.23562 1.83586 2.62614C1.44534 3.01667 1.44534 3.64983 1.83586 4.04036L15.8359 18.0404C16.2264 18.4309 16.8596 18.4309 17.2501 18.0404C17.6406 17.6499 17.6406 17.0167 17.2501 16.6262L15.7769 15.153C17.3145 13.9257 18.482 12.2544 19.0854 10.3332C17.8111 6.27613 14.0208 3.33325 9.54317 3.33325C7.91962 3.33325 6.38641 3.72017 5.03076 4.40683L3.25008 2.62614ZM7.5111 6.88716L9.02498 8.40105C9.19027 8.35683 9.36399 8.33325 9.54327 8.33325C10.6478 8.33325 11.5433 9.22868 11.5433 10.3333C11.5433 10.5125 11.5197 10.6863 11.4755 10.8515L12.9893 12.3654C13.3413 11.7699 13.5433 11.0752 13.5433 10.3333C13.5433 8.12411 11.7524 6.33325 9.54327 6.33325C8.80135 6.33325 8.10664 6.53522 7.5111 6.88716Z" fill="#666666"/>
<path d="M11.9961 17.0298L9.29164 14.3254C7.28212 14.2012 5.67419 12.5932 5.54997 10.5837L1.87691 6.91064C1.04262 7.90533 0.39836 9.06479 0 10.3331C1.27427 14.3902 5.06456 17.3331 9.54219 17.3331C10.3889 17.3331 11.2109 17.2279 11.9961 17.0298Z" fill="#666666"/>
</g>
</svg>
