<svg width="20" height="15" viewBox="0 0 20 15" fill="none" xmlns="http://www.w3.org/2000/svg">
<g opacity="0.5">
<path d="M9.99999 9.33325C11.1046 9.33325 12 8.43785 12 7.33325C12 6.22868 11.1046 5.33325 9.99999 5.33325C8.89543 5.33325 8 6.22868 8 7.33325C8 8.43785 8.89543 9.33325 9.99999 9.33325Z" fill="#666666"/>
<path fill-rule="evenodd" clip-rule="evenodd" d="M0.457031 7.33325C1.73129 3.27616 5.52159 0.333252 9.99924 0.333252C14.4769 0.333252 18.2672 3.27613 19.5415 7.33321C18.2672 11.3904 14.4769 14.3333 9.99922 14.3333C5.52159 14.3333 1.73131 11.3904 0.457031 7.33325ZM13.9993 7.33325C13.9993 9.54235 12.2084 11.3333 9.99927 11.3333C7.79014 11.3333 5.99928 9.54235 5.99928 7.33325C5.99928 5.12411 7.79014 3.33325 9.99927 3.33325C12.2084 3.33325 13.9993 5.12411 13.9993 7.33325Z" fill="#666666"/>
</g>
</svg>
