<svg xmlns="http://www.w3.org/2000/svg" width="32" height="20" viewBox="0 0 32 20" fill="none">
  <path d="M17.2486 18.9841L31.4888 4.59201C31.8184 4.25914 32 3.81478 32 3.34098C32 2.86718 31.8184 2.42282 31.4888 2.08995L30.4403 1.03007C29.7572 0.3404 28.6468 0.3404 27.9647 1.03007L16.0066 13.1155L4.03535 1.01666C3.70573 0.683788 3.26632 0.499999 2.79777 0.499999C2.3287 0.499999 1.88929 0.683788 1.5594 1.01666L0.511215 2.07654C0.181593 2.40967 1.80446e-06 2.85377 1.78375e-06 3.32757C1.76304e-06 3.80137 0.181593 4.24573 0.511215 4.5786L14.7644 18.9841C15.095 19.3178 15.5365 19.501 16.0059 19.5C16.477 19.501 16.9182 19.3178 17.2486 18.9841Z" fill="#017A3F"/>
</svg>