<svg width="19" height="18" viewBox="0 0 19 18" fill="none" xmlns="http://www.w3.org/2000/svg">
<g clip-path="url(#clip0_20_5055)">
<path d="M18.8326 3.57568L13.0703 8.99955L18.8326 14.4234C18.9368 14.2172 19 13.9891 19 13.7456V4.25346C19 4.00993 18.9368 3.78195 18.8326 3.57568Z" fill="#017A3F"/>
<path d="M17.3365 2.67188H1.67637C1.41931 2.67188 1.17866 2.73175 0.960938 2.83043L8.32578 9.77249C8.97697 10.3894 10.0359 10.3894 10.6871 9.77249L18.052 2.83043C17.8342 2.73175 17.5936 2.67188 17.3365 2.67188Z" fill="#017A3F"/>
<path d="M0.167363 3.57617C0.0631973 3.78243 0 4.01042 0 4.25395V13.7461C0 13.9897 0.0631973 14.2177 0.167363 14.4239L5.92967 9.00004L0.167363 3.57617Z" fill="#017A3F"/>
<path d="M12.2896 9.74316L11.4742 10.5157C10.3892 11.5436 8.62365 11.5436 7.53861 10.5157L6.72324 9.74316L0.960938 15.167C1.17866 15.2657 1.41931 15.3256 1.67637 15.3256H17.3365C17.5936 15.3256 17.8342 15.2657 18.052 15.167L12.2896 9.74316Z" fill="#017A3F"/>
</g>
<defs>
<clipPath id="clip0_20_5055">
<rect width="19" height="18" fill="white"/>
</clipPath>
</defs>
</svg>
