<svg width="45" height="44" viewBox="0 0 45 44" fill="none" xmlns="http://www.w3.org/2000/svg">
<rect width="44.1192" height="44" fill="#EFEFEF"/>
<rect width="44.1192" height="44" rx="5" fill="white"/>
<path d="M25.6641 10V18.4H34.0868V10H25.6641ZM31.6803 16H28.0706V12.4H31.6803V16Z" fill="#017A3F"/>
<path d="M14.8364 20.8008H10.0234V23.2008H14.8364V20.8008Z" fill="#017A3F"/>
<path d="M20.8519 20.8008H17.2422V23.2008H20.8519V20.8008Z" fill="#017A3F"/>
<path d="M23.2581 18.4004H20.8516V20.8004H23.2581V18.4004Z" fill="#017A3F"/>
<path d="M18.4462 14.8V10H10.0234V18.4H18.4462H20.8527V14.8H18.4462ZM16.0397 16H12.43V12.4H16.0397V16Z" fill="#017A3F"/>
<path d="M23.2581 10H20.8516V14.8H23.2581V10Z" fill="#017A3F"/>
<path d="M26.8754 23.2008H29.2818V26.8008H31.6884V20.8008H23.2656V23.2008H24.4689V25.6008H26.8754V23.2008Z" fill="#017A3F"/>
<path d="M24.4612 25.5996H22.0547V29.1996H24.4612V25.5996Z" fill="#017A3F"/>
<path d="M34.0862 26.8008H31.6797V29.2008H34.0862V26.8008Z" fill="#017A3F"/>
<path d="M26.8677 29.1992H24.4612V31.5992H22.0547V33.9993H26.8677V31.5992H29.2742V33.9993H32.8839V31.5992H31.6807V29.1992H29.2742H26.8677Z" fill="#017A3F"/>
<path d="M18.4462 29.1996V25.5996H10.0234V33.9996H18.4462V31.5996H22.0559V29.1996H18.4462ZM16.0397 31.5996H12.43V27.9996H16.0397V31.5996Z" fill="#017A3F"/>
</svg>
