<svg width="16" height="16" viewBox="0 0 16 16" fill="none" xmlns="http://www.w3.org/2000/svg">
<g clip-path="url(#clip0_20_5049)">
<path d="M13.4898 10.7753C12.5918 10.7753 11.7102 10.6436 10.8747 10.3848C10.4653 10.2539 9.96196 10.374 9.7121 10.6146L8.06298 11.7817C6.15047 10.8246 4.97241 9.72049 3.96545 7.94097L5.17373 6.43521C5.48765 6.1413 5.60025 5.71197 5.46534 5.30914C5.18805 4.52174 5.04719 3.69555 5.04719 2.85337C5.04723 2.24496 4.51927 1.75 3.87035 1.75H1.17688C0.52796 1.75 0 2.24496 0 2.85333C0 9.8268 6.05143 15.5 13.4898 15.5C14.1387 15.5 14.6667 15.005 14.6667 14.3967V11.8786C14.6666 11.2703 14.1387 10.7753 13.4898 10.7753Z" fill="#017A3F"/>
</g>
<defs>
<clipPath id="clip0_20_5049">
<rect width="16" height="15" fill="white" transform="translate(0 0.5)"/>
</clipPath>
</defs>
</svg>
