<svg xmlns="http://www.w3.org/2000/svg" width="44" height="44" viewBox="0 0 44 44" fill="none">
  <rect width="44" height="44" fill="#EFEFEF"/>
  <rect x="0.5" y="0.5" width="43" height="43" rx="4.5" fill="white" stroke="#222222"/>
  <path d="M25.6016 10V18.4H34.0015V10H25.6016ZM31.6016 16H28.0016V12.4H31.6016V16Z" fill="#017A3F"/>
  <path d="M14.8 20.8008H10V23.2008H14.8V20.8008Z" fill="#017A3F"/>
  <path d="M20.8031 20.8008H17.2031V23.2008H20.8031V20.8008Z" fill="#017A3F"/>
  <path d="M23.1969 18.4004H20.7969V20.8004H23.1969V18.4004Z" fill="#017A3F"/>
  <path d="M18.4 14.8V10H10V18.4H18.4H20.8V14.8H18.4ZM16 16H12.4V12.4H16V16Z" fill="#017A3F"/>
  <path d="M23.1969 10H20.7969V14.8H23.1969V10Z" fill="#017A3F"/>
  <path d="M26.8031 23.2008H29.2031V26.8008H31.6031V20.8008H23.2031V23.2008H24.4031V25.6008H26.8031V23.2008Z" fill="#017A3F"/>
  <path d="M24.4 25.5996H22V29.1996H24.4V25.5996Z" fill="#017A3F"/>
  <path d="M34.0016 26.8008H31.6016V29.2008H34.0016V26.8008Z" fill="#017A3F"/>
  <path d="M26.8 29.1992H24.4V31.5992H22V33.9993H26.8V31.5992H29.2V33.9993H32.8V31.5992H31.6V29.1992H29.2H26.8Z" fill="#017A3F"/>
  <path d="M18.4 29.1996V25.5996H10V33.9996H18.4V31.5996H22V29.1996H18.4ZM16 31.5996H12.4V27.9996H16V31.5996Z" fill="#017A3F"/>
  <circle cx="32.5" cy="31.5" r="7" fill="white" stroke="#017A3F"/>
  <path d="M29.625 30.875H31.75C31.819 30.875 31.875 30.819 31.875 30.75V28.625C31.875 28.2798 32.1548 28 32.5 28C32.8452 28 33.125 28.2798 33.125 28.625V30.75C33.125 30.819 33.181 30.875 33.25 30.875H35.375C35.7202 30.875 36 31.1548 36 31.5C36 31.8452 35.7202 32.125 35.375 32.125H33.25C33.181 32.125 33.125 32.181 33.125 32.25V34.375C33.125 34.7202 32.8452 35 32.5 35C32.1548 35 31.875 34.7202 31.875 34.375V32.25C31.875 32.181 31.819 32.125 31.75 32.125H29.625C29.2798 32.125 29 31.8452 29 31.5C29 31.1548 29.2798 30.875 29.625 30.875Z" fill="#017A3F"/>
</svg>