<svg width="27" height="27" viewBox="0 0 27 27" fill="none" xmlns="http://www.w3.org/2000/svg">
<path d="M10.8649 14.7271C10.7904 14.7271 9.22595 14.7275 8.50442 14.7268C8.13297 14.7266 8.00045 14.5931 8.00045 14.2193C7.99997 13.2591 7.99974 12.2989 8.00045 11.3387C8.00069 10.9696 8.14081 10.8287 8.50751 10.8285C9.22904 10.828 10.7849 10.8283 10.8649 10.8283C10.8649 10.7625 10.8647 9.37619 10.8649 8.73779C10.8654 7.79397 11.0338 6.89052 11.5133 6.06331C12.0042 5.21662 12.7186 4.63665 13.6342 4.3013C14.2206 4.08636 14.8293 4.00062 15.4515 4.00015C16.2301 3.99967 17.0086 4.00038 17.7873 4.00181C18.122 4.00228 18.2704 4.15025 18.2711 4.48726C18.2726 5.39047 18.2726 6.29368 18.2711 7.19666C18.2707 7.53723 18.1284 7.67403 17.7862 7.67783C17.148 7.68472 16.5094 7.68044 15.8719 7.70609C15.228 7.70609 14.8894 8.02054 14.8894 8.68697C14.8739 9.39187 14.883 10.0975 14.883 10.828C14.9433 10.828 16.7756 10.8278 17.632 10.828C18.021 10.828 18.154 10.9617 18.154 11.3529C18.154 12.3079 18.1538 13.2631 18.1531 14.2181C18.1529 14.6036 18.0279 14.7266 17.6365 14.7268C16.7801 14.7273 14.9549 14.7271 14.8751 14.7271V22.4565C14.8751 22.8686 14.7454 22.9999 14.3388 22.9999C13.3475 22.9999 12.356 23.0001 11.3646 22.9999C11.0053 22.9999 10.8652 22.8602 10.8652 22.5009C10.8649 19.9836 10.8649 14.8154 10.8649 14.7271Z" fill="#1877F2"/>
</svg>
