<svg width="27" height="27" viewBox="0 0 27 27" fill="none" xmlns="http://www.w3.org/2000/svg">
<path d="M22.2839 11.8481H14.5334C14.1917 11.8481 13.915 12.1248 13.915 12.4666V14.9442C13.915 15.286 14.1917 15.5627 14.5334 15.5627H18.8989C18.4229 16.8035 17.5278 17.841 16.3927 18.5001L18.252 21.7223C21.2342 19.9973 22.9999 16.9663 22.9999 13.5772C22.9999 13.0931 22.9633 12.7473 22.8941 12.3608C22.8372 12.0638 22.5809 11.8481 22.2839 11.8481Z" fill="#167EE6"/>
<path d="M13.4997 19.2813C11.3638 19.2813 9.50041 18.1137 8.49957 16.3887L5.27734 18.2439C6.91693 21.0877 9.98862 22.9999 13.4997 22.9999C15.2247 22.9999 16.8481 22.5361 18.2517 21.7265V21.7224L16.3924 18.5002C15.538 18.9966 14.5534 19.2813 13.4997 19.2813Z" fill="#12B347"/>
<path d="M18.2479 21.7265V21.7225L16.3886 18.5002C15.5383 18.9925 14.5537 19.2814 13.5 19.2814V23C15.225 23 16.8483 22.5362 18.2479 21.7265Z" fill="#0F993E"/>
<path d="M7.71858 13.4999C7.71858 12.4462 8.00744 11.4616 8.49972 10.6113L5.2775 8.7561C4.4638 10.1516 4 11.7708 4 13.4999C4 15.229 4.4638 16.8483 5.2775 18.2438L8.49972 16.3885C8.00337 15.5382 7.71858 14.5537 7.71858 13.4999Z" fill="#FFD500"/>
<path d="M13.4997 7.71858C14.8911 7.71858 16.1727 8.21493 17.1695 9.03676C17.4176 9.24018 17.7757 9.22391 17.9994 9.00014L19.7529 7.24663C20.0093 6.99032 19.9889 6.57127 19.7163 6.3353C18.0442 4.87879 15.8676 4 13.4997 4C9.98863 4 6.91693 5.91218 5.27734 8.75603L8.49957 10.6113C9.50041 8.88622 11.3638 7.71858 13.4997 7.71858Z" fill="#FF4B26"/>
<path d="M17.1698 9.03676C17.4179 9.24018 17.776 9.22391 17.9997 9.00014L19.7532 7.24663C20.0095 6.99032 19.9892 6.57127 19.7166 6.3353C18.0445 4.87879 15.8678 4 13.5 4V7.71858C14.8914 7.71858 16.173 8.21086 17.1698 9.03676Z" fill="#D93F21"/>
</svg>
