<svg width="30" height="30" viewBox="0 0 30 30" fill="none" xmlns="http://www.w3.org/2000/svg">
<path d="M12.6914 0.173976C14.2191 -0.0592615 15.7803 -0.0557454 17.3092 0.171046C17.3086 4.34412 17.3081 8.51719 17.3092 12.6908C21.4817 12.692 25.6542 12.6903 29.8267 12.6914C30.0576 14.2198 30.0582 15.7809 29.8261 17.3087C25.6536 17.3075 21.4817 17.3087 17.3098 17.3081C17.3075 21.4818 17.3092 25.656 17.3086 29.8297C15.7797 30.053 14.2203 30.06 12.6925 29.825C12.6908 25.6531 12.6925 21.4812 12.6914 17.3087C8.51946 17.3093 4.34756 17.3052 0.175661 17.3111C-0.0593348 15.7815 -0.0569908 14.218 0.173316 12.6885C4.34639 12.6944 8.51888 12.6903 12.6914 12.6908C12.6919 8.51836 12.6925 4.34588 12.6914 0.173976Z" fill="#CB0101"/>
<path d="M18.8838 11.1503C21.6 9.44498 24.3162 7.73965 27.0348 6.03784C27.3342 6.45275 27.6226 6.87586 27.8863 7.31479C25.8985 8.57122 23.9019 9.81418 21.9118 11.0677C21.8409 11.1069 21.7694 11.1655 21.6832 11.1538C20.7497 11.1474 19.8167 11.155 18.8838 11.1503Z" fill="#CB0101"/>
<path d="M2.23097 7.11719C4.47251 8.45801 6.70819 9.80997 8.94973 11.1508C7.95583 11.1473 6.96076 11.1602 5.96745 11.1455C4.46665 10.27 2.98752 9.3558 1.49316 8.46914C1.71409 8.0056 1.96843 7.55905 2.23097 7.11719Z" fill="#CB0101"/>
<path d="M21.3203 18.8516C22.2433 18.8422 23.1657 18.8522 24.0887 18.8469C24.1625 18.8528 24.2463 18.8334 24.3155 18.8715C25.729 19.7265 27.1378 20.5892 28.5507 21.4454C28.3256 21.906 28.0865 22.3601 27.8193 22.7973C25.6481 21.4911 23.4898 20.162 21.3203 18.8516Z" fill="#CB0101"/>
<path d="M8.00086 19.0146C8.121 18.9496 8.22941 18.8306 8.37709 18.8476C9.30301 18.8523 10.2289 18.8406 11.1548 18.854C8.43511 20.5693 5.70013 22.2612 2.97688 23.9718C2.66864 23.5604 2.38383 23.132 2.12012 22.6913C4.08037 21.4654 6.04179 20.2417 8.00086 19.0146Z" fill="#CB0101"/>
<path d="M3.45801 5.41761C5.43408 3.03543 8.16026 1.28674 11.1543 0.498535C11.1525 3.67947 11.1537 6.8604 11.1537 10.0413C8.58864 8.49951 6.0242 6.9571 3.45801 5.41761Z" fill="#1E3695"/>
<path d="M18.8482 0.498047C21.8481 1.28449 24.5778 3.0408 26.5521 5.4306C23.9841 7.04041 21.4174 8.65315 18.8482 10.2624C18.8465 7.00759 18.8459 3.75282 18.8482 0.498047Z" fill="#1E3695"/>
<path d="M1.17412 9.1748C2.27057 9.83232 3.37054 10.4857 4.46171 11.152C3.14082 11.1515 1.81992 11.1509 0.499023 11.1532C0.680105 10.4799 0.901036 9.8165 1.17412 9.1748Z" fill="#1E3695"/>
<path d="M25.6748 11.1519C26.7273 10.4949 27.7751 9.83154 28.8288 9.17578C29.1001 9.81748 29.321 10.4791 29.5015 11.1513C28.2258 11.1519 26.9506 11.1513 25.6748 11.1519Z" fill="#1E3695"/>
<path d="M0.5 18.8469C1.78515 18.8487 3.0703 18.8487 4.35545 18.8469C3.29533 19.508 2.23873 20.176 1.1751 20.8318C0.905528 20.186 0.676979 19.5238 0.5 18.8469Z" fill="#1E3695"/>
<path d="M25.7471 18.8459C26.9982 18.85 28.25 18.8471 29.5017 18.8477C29.33 19.4912 29.1167 20.1229 28.8641 20.7388C27.8245 20.1082 26.7908 19.4689 25.7471 18.8459Z" fill="#1E3695"/>
<path d="M3.45508 24.573C6.02655 22.9796 8.58571 21.3675 11.1537 19.7688C11.1531 23.0124 11.1537 26.2561 11.1537 29.4997C8.1585 28.7103 5.42705 26.9616 3.45508 24.573Z" fill="#1E3695"/>
<path d="M18.8467 19.7805C21.431 21.3593 24.0224 22.9269 26.6068 24.5062C24.6225 26.923 21.8758 28.708 18.8484 29.5003C18.8449 26.2608 18.849 23.0206 18.8467 19.7805Z" fill="#1E3695"/>
</svg>
