<svg width="31" height="31" viewBox="0 0 31 31" fill="none" xmlns="http://www.w3.org/2000/svg">
<path d="M8.12027 2.30743C11.3653 0.591838 15.2379 0.0182351 18.8085 0.930786C22.5093 1.76772 25.796 4.15339 27.8508 7.33168C28.4811 8.32245 29.0931 9.37579 29.3483 10.5334C19.9701 10.5256 10.5892 10.5282 1.21094 10.5334C2.28393 7.01359 4.95078 4.09864 8.12027 2.30743Z" fill="#222222"/>
<path d="M1.20898 10.5335C10.5872 10.5283 19.9681 10.5257 29.3464 10.5335H29.5078C30.1198 12.7679 30.4975 15.1015 30.1563 17.4167C30.0391 18.4518 29.6927 19.4374 29.5208 20.4594C29.474 20.4621 29.3828 20.4647 29.3359 20.4647C19.9655 20.4933 10.5898 20.5168 1.21679 20.4516C1.17773 20.449 1.09699 20.4464 1.05533 20.4438C0.479764 18.2667 0.0917168 16.0114 0.386008 13.7561C0.495391 12.6584 0.857394 11.6103 1.06574 10.5335H1.20898Z" fill="#D91F26"/>
<path d="M1.21484 20.4517C10.5879 20.5168 19.9635 20.4934 29.334 20.4647C29.2845 21.0018 29.0501 21.492 28.8339 21.9743C27.0109 25.7497 23.5784 28.7376 19.5364 29.8796C16.0154 30.9616 12.1271 30.594 8.80131 29.0453C5.75422 27.5591 3.20717 25.0483 1.75394 21.9769C1.53518 21.4868 1.21745 21.007 1.21484 20.4517Z" fill="#FDCE0B"/>
</svg>
